<mxfile host="app.diagrams.net" modified="2020-09-12T14:58:54.137Z" agent="5.0 (Windows)" etag="l0f_feM_cEgL3hvaa-4B" version="13.6.10" type="github">
  <diagram id="JIyP0em8TTZpzE-Yu7QX" name="Page-1">
    <mxGraphModel dx="1038" dy="547" grid="1" gridSize="10" guides="1" tooltips="1" connect="1" arrows="1" fold="1" page="1" pageScale="1" pageWidth="827" pageHeight="1169" math="0" shadow="0">
      <root>
        <mxCell id="0" />
        <mxCell id="1" parent="0" />
        <mxCell id="kAtY7hV0Js4Ca2Sx3CgP-8" value="" style="endArrow=none;html=1;edgeStyle=orthogonalEdgeStyle;" edge="1" parent="1" source="kAtY7hV0Js4Ca2Sx3CgP-1" target="kAtY7hV0Js4Ca2Sx3CgP-3">
          <mxGeometry relative="1" as="geometry">
            <mxPoint x="107" y="150" as="sourcePoint" />
            <mxPoint x="267" y="150" as="targetPoint" />
          </mxGeometry>
        </mxCell>
        <mxCell id="kAtY7hV0Js4Ca2Sx3CgP-9" value="1" style="edgeLabel;resizable=0;html=1;align=left;verticalAlign=bottom;" connectable="0" vertex="1" parent="kAtY7hV0Js4Ca2Sx3CgP-8">
          <mxGeometry x="-1" relative="1" as="geometry">
            <mxPoint x="10" as="offset" />
          </mxGeometry>
        </mxCell>
        <mxCell id="kAtY7hV0Js4Ca2Sx3CgP-10" value="0..*" style="edgeLabel;resizable=0;html=1;align=right;verticalAlign=bottom;" connectable="0" vertex="1" parent="kAtY7hV0Js4Ca2Sx3CgP-8">
          <mxGeometry x="1" relative="1" as="geometry">
            <mxPoint x="-10" as="offset" />
          </mxGeometry>
        </mxCell>
        <mxCell id="kAtY7hV0Js4Ca2Sx3CgP-12" value="take" style="edgeLabel;html=1;align=center;verticalAlign=middle;resizable=0;points=[];" vertex="1" connectable="0" parent="kAtY7hV0Js4Ca2Sx3CgP-8">
          <mxGeometry x="-0.2" y="3" relative="1" as="geometry">
            <mxPoint x="2" y="17" as="offset" />
          </mxGeometry>
        </mxCell>
        <mxCell id="kAtY7hV0Js4Ca2Sx3CgP-13" value="" style="endArrow=none;html=1;edgeStyle=orthogonalEdgeStyle;" edge="1" parent="1" source="kAtY7hV0Js4Ca2Sx3CgP-1" target="kAtY7hV0Js4Ca2Sx3CgP-3">
          <mxGeometry relative="1" as="geometry">
            <mxPoint x="167" y="320" as="sourcePoint" />
            <mxPoint x="297" y="300" as="targetPoint" />
            <Array as="points">
              <mxPoint x="160" y="280" />
              <mxPoint x="357" y="280" />
            </Array>
          </mxGeometry>
        </mxCell>
        <mxCell id="kAtY7hV0Js4Ca2Sx3CgP-14" value="0..*" style="edgeLabel;resizable=0;html=1;align=left;verticalAlign=bottom;" connectable="0" vertex="1" parent="kAtY7hV0Js4Ca2Sx3CgP-13">
          <mxGeometry x="-1" relative="1" as="geometry">
            <mxPoint x="13" y="18" as="offset" />
          </mxGeometry>
        </mxCell>
        <mxCell id="kAtY7hV0Js4Ca2Sx3CgP-15" value="0..*" style="edgeLabel;resizable=0;html=1;align=right;verticalAlign=bottom;" connectable="0" vertex="1" parent="kAtY7hV0Js4Ca2Sx3CgP-13">
          <mxGeometry x="1" relative="1" as="geometry">
            <mxPoint x="-10" y="28" as="offset" />
          </mxGeometry>
        </mxCell>
        <mxCell id="kAtY7hV0Js4Ca2Sx3CgP-16" value="&lt;div&gt;like&lt;/div&gt;" style="edgeLabel;html=1;align=center;verticalAlign=middle;resizable=0;points=[];" vertex="1" connectable="0" parent="kAtY7hV0Js4Ca2Sx3CgP-13">
          <mxGeometry x="-0.1944" y="2" relative="1" as="geometry">
            <mxPoint x="11" y="12" as="offset" />
          </mxGeometry>
        </mxCell>
        <mxCell id="kAtY7hV0Js4Ca2Sx3CgP-18" value="" style="endArrow=none;html=1;edgeStyle=orthogonalEdgeStyle;" edge="1" parent="1" source="kAtY7hV0Js4Ca2Sx3CgP-1" target="kAtY7hV0Js4Ca2Sx3CgP-3">
          <mxGeometry relative="1" as="geometry">
            <mxPoint x="160" y="139" as="sourcePoint" />
            <mxPoint x="370" y="113" as="targetPoint" />
            <Array as="points">
              <mxPoint x="130" y="130" />
              <mxPoint x="370" y="130" />
            </Array>
          </mxGeometry>
        </mxCell>
        <mxCell id="kAtY7hV0Js4Ca2Sx3CgP-19" value="0..*" style="edgeLabel;resizable=0;html=1;align=left;verticalAlign=bottom;" connectable="0" vertex="1" parent="kAtY7hV0Js4Ca2Sx3CgP-18">
          <mxGeometry x="-1" relative="1" as="geometry">
            <mxPoint x="-30" y="-3.0000000000000036" as="offset" />
          </mxGeometry>
        </mxCell>
        <mxCell id="kAtY7hV0Js4Ca2Sx3CgP-20" value="0..*" style="edgeLabel;resizable=0;html=1;align=right;verticalAlign=bottom;" connectable="0" vertex="1" parent="kAtY7hV0Js4Ca2Sx3CgP-18">
          <mxGeometry x="1" relative="1" as="geometry">
            <mxPoint x="23" y="-3" as="offset" />
          </mxGeometry>
        </mxCell>
        <mxCell id="kAtY7hV0Js4Ca2Sx3CgP-21" value="tag" style="edgeLabel;html=1;align=center;verticalAlign=middle;resizable=0;points=[];" vertex="1" connectable="0" parent="kAtY7hV0Js4Ca2Sx3CgP-18">
          <mxGeometry x="-0.1944" y="2" relative="1" as="geometry">
            <mxPoint x="32" y="12" as="offset" />
          </mxGeometry>
        </mxCell>
        <mxCell id="kAtY7hV0Js4Ca2Sx3CgP-23" value="" style="endArrow=diamondThin;endFill=1;endSize=24;html=1;" edge="1" parent="1" source="kAtY7hV0Js4Ca2Sx3CgP-22" target="kAtY7hV0Js4Ca2Sx3CgP-17">
          <mxGeometry width="160" relative="1" as="geometry">
            <mxPoint x="240" y="430" as="sourcePoint" />
            <mxPoint x="400" y="430" as="targetPoint" />
          </mxGeometry>
        </mxCell>
        <mxCell id="kAtY7hV0Js4Ca2Sx3CgP-24" value="" style="endArrow=none;html=1;edgeStyle=orthogonalEdgeStyle;" edge="1" parent="1" source="kAtY7hV0Js4Ca2Sx3CgP-3" target="kAtY7hV0Js4Ca2Sx3CgP-17">
          <mxGeometry relative="1" as="geometry">
            <mxPoint x="460" y="170" as="sourcePoint" />
            <mxPoint x="620" y="220" as="targetPoint" />
            <Array as="points">
              <mxPoint x="600" y="240" />
            </Array>
          </mxGeometry>
        </mxCell>
        <mxCell id="kAtY7hV0Js4Ca2Sx3CgP-25" value="1" style="edgeLabel;resizable=0;html=1;align=left;verticalAlign=bottom;" connectable="0" vertex="1" parent="kAtY7hV0Js4Ca2Sx3CgP-24">
          <mxGeometry x="-1" relative="1" as="geometry">
            <mxPoint x="13" as="offset" />
          </mxGeometry>
        </mxCell>
        <mxCell id="kAtY7hV0Js4Ca2Sx3CgP-26" value="0,1" style="edgeLabel;resizable=0;html=1;align=right;verticalAlign=bottom;" connectable="0" vertex="1" parent="kAtY7hV0Js4Ca2Sx3CgP-24">
          <mxGeometry x="1" relative="1" as="geometry">
            <mxPoint x="-10" y="18" as="offset" />
          </mxGeometry>
        </mxCell>
        <mxCell id="kAtY7hV0Js4Ca2Sx3CgP-34" value="have" style="edgeLabel;html=1;align=center;verticalAlign=middle;resizable=0;points=[];" vertex="1" connectable="0" parent="kAtY7hV0Js4Ca2Sx3CgP-24">
          <mxGeometry x="-0.301" y="-1" relative="1" as="geometry">
            <mxPoint x="17" y="13" as="offset" />
          </mxGeometry>
        </mxCell>
        <mxCell id="kAtY7hV0Js4Ca2Sx3CgP-22" value="Comment" style="swimlane;fontStyle=1;childLayout=stackLayout;horizontal=1;startSize=26;fillColor=none;horizontalStack=0;resizeParent=1;resizeParentMax=0;resizeLast=0;collapsible=1;marginBottom=0;" vertex="1" parent="1">
          <mxGeometry x="570" y="320" width="140" height="52" as="geometry" />
        </mxCell>
        <mxCell id="kAtY7hV0Js4Ca2Sx3CgP-39" value="text" style="text;strokeColor=none;fillColor=none;align=left;verticalAlign=top;spacingLeft=4;spacingRight=4;overflow=hidden;rotatable=0;points=[[0,0.5],[1,0.5]];portConstraint=eastwest;" vertex="1" parent="kAtY7hV0Js4Ca2Sx3CgP-22">
          <mxGeometry y="26" width="140" height="26" as="geometry" />
        </mxCell>
        <mxCell id="kAtY7hV0Js4Ca2Sx3CgP-29" value="" style="endArrow=block;endSize=16;endFill=0;html=1;" edge="1" parent="1" source="kAtY7hV0Js4Ca2Sx3CgP-3" target="kAtY7hV0Js4Ca2Sx3CgP-2">
          <mxGeometry width="160" relative="1" as="geometry">
            <mxPoint x="90" y="140" as="sourcePoint" />
            <mxPoint x="250" y="140" as="targetPoint" />
          </mxGeometry>
        </mxCell>
        <mxCell id="kAtY7hV0Js4Ca2Sx3CgP-30" value="" style="endArrow=none;html=1;edgeStyle=orthogonalEdgeStyle;" edge="1" parent="1" source="kAtY7hV0Js4Ca2Sx3CgP-5" target="kAtY7hV0Js4Ca2Sx3CgP-22">
          <mxGeometry relative="1" as="geometry">
            <mxPoint x="185" y="272" as="sourcePoint" />
            <mxPoint x="377" y="272" as="targetPoint" />
            <Array as="points">
              <mxPoint x="90" y="346" />
            </Array>
          </mxGeometry>
        </mxCell>
        <mxCell id="kAtY7hV0Js4Ca2Sx3CgP-31" value="1" style="edgeLabel;resizable=0;html=1;align=left;verticalAlign=bottom;" connectable="0" vertex="1" parent="kAtY7hV0Js4Ca2Sx3CgP-30">
          <mxGeometry x="-1" relative="1" as="geometry">
            <mxPoint x="10.000000000000004" y="24.999999999999996" as="offset" />
          </mxGeometry>
        </mxCell>
        <mxCell id="kAtY7hV0Js4Ca2Sx3CgP-32" value="0..*" style="edgeLabel;resizable=0;html=1;align=right;verticalAlign=bottom;" connectable="0" vertex="1" parent="kAtY7hV0Js4Ca2Sx3CgP-30">
          <mxGeometry x="1" relative="1" as="geometry">
            <mxPoint x="-10" y="-6" as="offset" />
          </mxGeometry>
        </mxCell>
        <mxCell id="kAtY7hV0Js4Ca2Sx3CgP-33" value="put_a_comment" style="edgeLabel;html=1;align=center;verticalAlign=middle;resizable=0;points=[];" vertex="1" connectable="0" parent="kAtY7hV0Js4Ca2Sx3CgP-30">
          <mxGeometry x="-0.1944" y="2" relative="1" as="geometry">
            <mxPoint x="117" y="12" as="offset" />
          </mxGeometry>
        </mxCell>
        <mxCell id="kAtY7hV0Js4Ca2Sx3CgP-40" value="Tag" style="swimlane;fontStyle=1;childLayout=stackLayout;horizontal=1;startSize=26;fillColor=none;horizontalStack=0;resizeParent=1;resizeParentMax=0;resizeLast=0;collapsible=1;marginBottom=0;" vertex="1" parent="1">
          <mxGeometry x="187" y="30" width="140" height="52" as="geometry" />
        </mxCell>
        <mxCell id="kAtY7hV0Js4Ca2Sx3CgP-41" value="name" style="text;strokeColor=none;fillColor=none;align=left;verticalAlign=top;spacingLeft=4;spacingRight=4;overflow=hidden;rotatable=0;points=[[0,0.5],[1,0.5]];portConstraint=eastwest;fontStyle=4" vertex="1" parent="kAtY7hV0Js4Ca2Sx3CgP-40">
          <mxGeometry y="26" width="140" height="26" as="geometry" />
        </mxCell>
        <mxCell id="kAtY7hV0Js4Ca2Sx3CgP-1" value="User" style="swimlane;fontStyle=1;childLayout=stackLayout;horizontal=1;startSize=26;fillColor=none;horizontalStack=0;resizeParent=1;resizeParentMax=0;resizeLast=0;collapsible=1;marginBottom=0;" vertex="1" parent="1">
          <mxGeometry x="47" y="173" width="140" height="52" as="geometry" />
        </mxCell>
        <mxCell id="kAtY7hV0Js4Ca2Sx3CgP-5" value="ID" style="text;strokeColor=none;fillColor=none;align=left;verticalAlign=top;spacingLeft=4;spacingRight=4;overflow=hidden;rotatable=0;points=[[0,0.5],[1,0.5]];portConstraint=eastwest;fontStyle=4" vertex="1" parent="kAtY7hV0Js4Ca2Sx3CgP-1">
          <mxGeometry y="26" width="140" height="26" as="geometry" />
        </mxCell>
        <mxCell id="kAtY7hV0Js4Ca2Sx3CgP-2" value="DIgital_content" style="swimlane;fontStyle=1;childLayout=stackLayout;horizontal=1;startSize=26;fillColor=none;horizontalStack=0;resizeParent=1;resizeParentMax=0;resizeLast=0;collapsible=1;marginBottom=0;" vertex="1" parent="1">
          <mxGeometry x="420" y="50" width="140" height="52" as="geometry" />
        </mxCell>
        <mxCell id="kAtY7hV0Js4Ca2Sx3CgP-7" value="ID" style="text;strokeColor=none;fillColor=none;align=left;verticalAlign=top;spacingLeft=4;spacingRight=4;overflow=hidden;rotatable=0;points=[[0,0.5],[1,0.5]];portConstraint=eastwest;fontStyle=4" vertex="1" parent="kAtY7hV0Js4Ca2Sx3CgP-2">
          <mxGeometry y="26" width="140" height="26" as="geometry" />
        </mxCell>
        <mxCell id="kAtY7hV0Js4Ca2Sx3CgP-42" value="" style="endArrow=none;html=1;rounded=0;dashed=1;dashPattern=1 2;" edge="1" parent="1" target="kAtY7hV0Js4Ca2Sx3CgP-40">
          <mxGeometry relative="1" as="geometry">
            <mxPoint x="257" y="130" as="sourcePoint" />
            <mxPoint x="190" y="70" as="targetPoint" />
          </mxGeometry>
        </mxCell>
        <mxCell id="kAtY7hV0Js4Ca2Sx3CgP-3" value="Picture" style="swimlane;fontStyle=1;childLayout=stackLayout;horizontal=1;startSize=26;fillColor=none;horizontalStack=0;resizeParent=1;resizeParentMax=0;resizeLast=0;collapsible=1;marginBottom=0;" vertex="1" parent="1">
          <mxGeometry x="327" y="147" width="140" height="104" as="geometry" />
        </mxCell>
        <mxCell id="kAtY7hV0Js4Ca2Sx3CgP-36" value="ID" style="text;strokeColor=none;fillColor=none;align=left;verticalAlign=top;spacingLeft=4;spacingRight=4;overflow=hidden;rotatable=0;points=[[0,0.5],[1,0.5]];portConstraint=eastwest;fontStyle=4" vertex="1" parent="kAtY7hV0Js4Ca2Sx3CgP-3">
          <mxGeometry y="26" width="140" height="26" as="geometry" />
        </mxCell>
        <mxCell id="kAtY7hV0Js4Ca2Sx3CgP-46" value="views" style="text;strokeColor=none;fillColor=none;align=left;verticalAlign=top;spacingLeft=4;spacingRight=4;overflow=hidden;rotatable=0;points=[[0,0.5],[1,0.5]];portConstraint=eastwest;" vertex="1" parent="kAtY7hV0Js4Ca2Sx3CgP-3">
          <mxGeometry y="52" width="140" height="26" as="geometry" />
        </mxCell>
        <mxCell id="kAtY7hV0Js4Ca2Sx3CgP-45" value="likes" style="text;strokeColor=none;fillColor=none;align=left;verticalAlign=top;spacingLeft=4;spacingRight=4;overflow=hidden;rotatable=0;points=[[0,0.5],[1,0.5]];portConstraint=eastwest;" vertex="1" parent="kAtY7hV0Js4Ca2Sx3CgP-3">
          <mxGeometry y="78" width="140" height="26" as="geometry" />
        </mxCell>
        <mxCell id="kAtY7hV0Js4Ca2Sx3CgP-48" value="Use" style="endArrow=open;endSize=12;dashed=1;html=1;" edge="1" parent="1" source="kAtY7hV0Js4Ca2Sx3CgP-17" target="kAtY7hV0Js4Ca2Sx3CgP-3">
          <mxGeometry width="160" relative="1" as="geometry">
            <mxPoint x="530" y="130" as="sourcePoint" />
            <mxPoint x="500" y="160" as="targetPoint" />
            <Array as="points" />
          </mxGeometry>
        </mxCell>
        <mxCell id="kAtY7hV0Js4Ca2Sx3CgP-17" value="Discussion" style="swimlane;fontStyle=1;childLayout=stackLayout;horizontal=1;startSize=26;fillColor=none;horizontalStack=0;resizeParent=1;resizeParentMax=0;resizeLast=0;collapsible=1;marginBottom=0;" vertex="1" parent="1">
          <mxGeometry x="570" y="150" width="140" height="52" as="geometry" />
        </mxCell>
      </root>
    </mxGraphModel>
  </diagram>
</mxfile>
